Coordinates
version=1
nRows=27
nColumns=38
inDegrees=no

Units are S.I. units (second, meters, Newtons, ...)
If the header above contains a line with 'inDegrees', this indicates whether rotational values are in degrees (yes) or radians (no).

endheader
time	pelvis_tilt	pelvis_list	pelvis_rotation	pelvis_tx	pelvis_ty	pelvis_tz	hip_flexion_r	hip_adduction_r	hip_rotation_r	knee_angle_r	ankle_angle_r	subtalar_angle_r	mtp_angle_r	hip_flexion_l	hip_adduction_l	hip_rotation_l	knee_angle_l	ankle_angle_l	subtalar_angle_l	mtp_angle_l	lumbar_extension	lumbar_bending	lumbar_rotation	arm_flex_r	arm_add_r	arm_rot_r	elbow_flex_r	pro_sup_r	wrist_flex_r	wrist_dev_r	arm_flex_l	arm_add_l	arm_rot_l	elbow_flex_l	pro_sup_l	wrist_flex_l	wrist_dev_l
2.06	2.47807	1.45087	-0.975024	0.830586	1.12106	1.01487	-0.127865	0.0786602	-0.389446	0.259938	0.169337	0	0	0.351516	-0.176142	-0.231825	0.487763	0.0690509	0	0	-0.360274	0.0543489	0.111552	0.141945	-0.232287	0.189746	0.371605	1.27708	0	0	0.139242	-0.226204	0.295776	0.36317	1.27925	0	0
2.07	2.50326	1.45282	-1.00086	0.830116	1.12846	1.01441	-0.137668	0.0739863	-0.3888	0.257599	0.174807	0	0	0.347908	-0.168055	-0.245091	0.449645	0.0684236	0	0	-0.361039	0.0506579	0.111437	0.143926	-0.232762	0.190968	0.369632	1.27759	0	0	0.140212	-0.225608	0.29398	0.3632	1.28211	0	0
2.08	2.54017	1.45391	-1.03822	0.829536	1.13601	1.01398	-0.149305	0.0686311	-0.38743	0.254485	0.180431	0	0	0.341279	-0.158222	-0.256489	0.409945	0.0667499	0	0	-0.363055	0.0462917	0.110602	0.144905	-0.235715	0.209616	0.371099	1.25272	0	0	0.140654	-0.22557	0.294385	0.364495	1.28048	0	0
2.09	2.55932	1.45584	-1.05786	0.82898	1.14375	1.0133	-0.158645	0.0646857	-0.385839	0.252131	0.186062	0	0	0.337325	-0.149595	-0.264849	0.373327	0.0656773	0	0	-0.362615	0.0432553	0.11042	0.145723	-0.235704	0.208739	0.368725	1.25551	0	0	0.141111	-0.224677	0.291815	0.363987	1.28358	0	0
2.1	2.64219	1.45758	-1.14091	0.828926	1.15071	1.01365	-0.169923	0.0547764	-0.383444	0.250985	0.189179	0	0	0.327837	-0.133351	-0.269698	0.332918	0.0549091	0	0	-0.369426	0.0315916	0.10805	0.150913	-0.231586	0.20606	0.363925	1.25724	0	0	0.145553	-0.227166	0.291146	0.363666	1.28612	0	0
2.11	2.60299	1.45823	-1.10469	0.827926	1.1599	1.01192	-0.178025	0.0556908	-0.383832	0.250811	0.197217	0	0	0.326501	-0.132374	-0.278803	0.305448	0.0604128	0	0	-0.362043	0.0367495	0.111342	0.145571	-0.235231	0.206524	0.364829	1.25918	0	0	0.139806	-0.224179	0.29046	0.36248	1.28842	0	0
2.12	2.61773	1.4595	-1.12191	0.82743	1.16827	1.01105	-0.18692	0.051369	-0.382865	0.250985	0.20303	0	0	0.322341	-0.12528	-0.286349	0.277749	0.0589457	0	0	-0.360522	0.0338822	0.112632	0.143685	-0.235534	0.20765	0.365158	1.26012	0	0	0.138182	-0.224082	0.290413	0.361875	1.29017	0	0
2.13	2.63688	1.45971	-1.14435	0.826937	1.17678	1.01028	-0.197207	0.0468068	-0.382079	0.250933	0.208051	0	0	0.316683	-0.118349	-0.293042	0.252822	0.0577195	0	0	-0.360143	0.0307377	0.11452	0.141789	-0.235605	0.208399	0.36514	1.2607	0	0	0.136475	-0.223787	0.290368	0.360954	1.29127	0	0
2.14	2.66399	1.45918	-1.17508	0.826426	1.18549	1.00956	-0.207484	0.0411192	-0.381093	0.253082	0.213552	0	0	0.30999	-0.110807	-0.299441	0.231122	0.0562636	0	0	-0.360545	0.0268381	0.116372	0.139673	-0.235371	0.208967	0.365014	1.26136	0	0	0.134319	-0.223698	0.290289	0.36045	1.29191	0	0
2.15	2.69421	1.45824	-1.2094	0.825942	1.19441	1.00881	-0.217134	0.0346085	-0.379201	0.257796	0.21918	0	0	0.302031	-0.103176	-0.302392	0.212034	0.0549327	0	0	-0.360953	0.0224123	0.118504	0.136942	-0.235099	0.209802	0.365073	1.26211	0	0	0.13147	-0.223914	0.290306	0.360546	1.29188	0	0
2.16	2.72631	1.4567	-1.24607	0.825453	1.20353	1.00807	-0.226521	0.0275049	-0.376557	0.264783	0.224473	0	0	0.293396	-0.0960955	-0.304222	0.197211	0.0535836	0	0	-0.361524	0.0176333	0.121076	0.133575	-0.234674	0.209701	0.365237	1.26295	0	0	0.128223	-0.224416	0.291089	0.360176	1.29188	0	0
2.17	2.77088	1.45322	-1.29588	0.824912	1.21283	1.00744	-0.237464	0.0185503	-0.374415	0.273757	0.230616	0	0	0.282172	-0.0882903	-0.307473	0.185751	0.0510995	0	0	-0.363867	0.0115241	0.124179	0.127621	-0.237671	0.229164	0.372252	1.23288	0	0	0.122733	-0.230068	0.319958	0.367905	1.25335	0	0
2.18	2.83949	1.44987	-1.36865	0.824932	1.22131	1.00756	-0.247391	0.00804112	-0.369029	0.282029	0.232351	0	0	0.271114	-0.0775884	-0.311483	0.176535	0.0426185	0	0	-0.370273	0.000267677	0.12525	0.12781	-0.233019	0.224323	0.369694	1.23662	0	0	0.123428	-0.232791	0.318266	0.366497	1.2573	0	0
2.19	2.8688	1.44653	-1.40317	0.82435	1.23103	1.00673	-0.256509	-0.000223479	-0.366225	0.292729	0.237142	0	0	0.26269	-0.0720361	-0.315674	0.176052	0.0434168	0	0	-0.370937	-0.00479994	0.128547	0.12285	-0.231724	0.219663	0.369023	1.24104	0	0	0.119131	-0.23295	0.31657	0.365164	1.26114	0	0
2.2	2.89162	1.44395	-1.43114	0.823682	1.24094	1.00576	-0.263485	-0.00856354	-0.363357	0.305879	0.241577	0	0	0.256366	-0.0676356	-0.318905	0.181856	0.0463314	0	0	-0.370088	-0.00925901	0.131948	0.116872	-0.230847	0.216027	0.369094	1.24568	0	0	0.114175	-0.232962	0.315446	0.363644	1.26452	0	0
2.21	2.91524	1.44173	-1.4596	0.82291	1.25097	1.00471	-0.268938	-0.017661	-0.359724	0.321228	0.245577	0	0	0.251802	-0.0634001	-0.323089	0.194023	0.0480678	0	0	-0.368598	-0.0139044	0.135091	0.110366	-0.229935	0.212412	0.369387	1.25039	0	0	0.109058	-0.233005	0.314831	0.362045	1.26786	0	0
2.22	2.93561	1.4403	-1.48451	0.822042	1.26118	1.00349	-0.272342	-0.0269737	-0.355394	0.338962	0.249263	0	0	0.247993	-0.059452	-0.32256	0.209517	0.050198	0	0	-0.365698	-0.0181587	0.138161	0.103009	-0.229221	0.209337	0.369913	1.25511	0	0	0.103423	-0.232829	0.314127	0.360768	1.27032	0	0
2.23	2.95811	1.43931	-1.51139	0.820992	1.27162	1.00215	-0.274087	-0.0375265	-0.350958	0.359228	0.25275	0	0	0.244248	-0.054525	-0.320442	0.225474	0.0526619	0	0	-0.361829	-0.022471	0.141105	0.094787	-0.228486	0.205875	0.370636	1.25912	0	0	0.0972547	-0.232513	0.313639	0.358726	1.27291	0	0
2.24	2.98574	1.4383	-1.54331	0.819803	1.28223	1.00081	-0.274326	-0.0496154	-0.345579	0.382518	0.255243	0	0	0.240173	-0.0482691	-0.320273	0.239643	0.0515533	0	0	-0.357596	-0.0273972	0.143831	0.0858066	-0.227825	0.201961	0.37188	1.26252	0	0	0.0903952	-0.232248	0.312583	0.357119	1.27556	0	0
2.25	3.02826	1.43734	-1.59016	0.818468	1.29284	0.999518	-0.27174	-0.0649283	-0.338878	0.410961	0.257388	0	0	0.235801	-0.0394894	-0.322357	0.249787	0.039663	0	0	-0.353052	-0.0346135	0.145984	0.074274	-0.231951	0.225953	0.381597	1.2253	0	0	0.0799364	-0.238916	0.345144	0.368298	1.22803	0	0
2.26	3.06217	1.43612	-1.62619	0.817002	1.30338	0.998474	-0.268726	-0.0776499	-0.329584	0.438993	0.254419	0	0	0.232056	-0.0325564	-0.319571	0.25939	0.020377	0	0	-0.349488	-0.0402582	0.146133	0.0662918	-0.230361	0.218991	0.381492	1.23328	0	0	0.072201	-0.238805	0.337398	0.368387	1.23438	0	0
2.27	3.12327	1.43514	-1.68814	0.815407	1.3136	0.997793	-0.261566	-0.0948192	-0.320921	0.472654	0.248516	0	0	0.232141	-0.0235761	-0.318699	0.274832	0.00286741	0	0	-0.346721	-0.0500885	0.144209	0.0596059	-0.226944	0.208123	0.380706	1.24511	0	0	0.0647031	-0.239442	0.324697	0.370935	1.24308	0	0
2.28	-3.08743	1.43495	-1.75845	0.813755	1.3237	0.997515	-0.250693	-0.112616	-0.313113	0.509559	0.237766	0	0	0.237257	-0.0146485	-0.316617	0.299012	-0.00269231	0	0	-0.343824	-0.0613825	0.14058	0.0586693	-0.211137	0.126382	0.362179	1.3568	0	0	0.0600602	-0.237466	0.292864	0.368759	1.28247	0	0
2.29	-3.02094	1.43364	-1.82184	0.812063	1.33358	0.997598	-0.237312	-0.130245	-0.305689	0.551312	0.222241	0	0	0.242948	-0.00693508	-0.315423	0.327079	-0.000702693	0	0	-0.341761	-0.0717127	0.136723	0.0519625	-0.206511	0.112552	0.363278	1.36499	0	0	0.0534205	-0.242352	0.299733	0.378457	1.27268	0	0
2.3	-2.96183	1.4343	-1.87756	0.810308	1.34336	0.997718	-0.217826	-0.147135	-0.298046	0.598561	0.200761	0	0	0.249902	-0.000527533	-0.314295	0.35328	0.000430573	0	0	-0.337218	-0.0800837	0.134007	0.043972	-0.203488	0.103025	0.366568	1.36525	0	0	0.0485179	-0.246335	0.306822	0.385346	1.26753	0	0
2.31	-2.9129	1.43673	-1.92329	0.808442	1.35306	0.997778	-0.193033	-0.162702	-0.289659	0.649899	0.17368	0	0	0.255885	0.00447288	-0.314222	0.37404	-0.00309272	0	0	-0.330561	-0.0858203	0.13259	0.0352539	-0.202275	0.0964587	0.370868	1.36299	0	0	0.0448823	-0.249302	0.314925	0.389461	1.26288	0	0
2.32	-2.86229	1.4415	-1.97221	0.806519	1.36257	0.997572	-0.160925	-0.178506	-0.279072	0.706318	0.140264	0	0	0.26162	0.00921171	-0.31712	0.388797	-0.00840637	0	0	-0.321035	-0.0904128	0.133318	0.0260802	-0.202812	0.0919751	0.376301	1.35962	0	0	0.0419104	-0.251945	0.325173	0.392444	1.25788	0	0
